<svg xmlns="http://www.w3.org/2000/svg" version="1.1" xmlns:xlink="http://www.w3.org/1999/xlink" xmlns:svgjs="http://svgjs.dev/svgjs" width="1440" height="560" preserveAspectRatio="none" viewBox="0 0 1440 560">
    <g mask="url(&quot;#SvgjsMask1384&quot;)" fill="none">
        <path d="M118.14 -49.46L169.24 -19.96L169.24 39.04L118.14 68.54L67.05 39.04L67.05 -19.96zM169.24 39.04L220.34 68.54L220.34 127.54L169.24 157.04L118.14 127.54L118.14 68.54zM169.24 216.04L220.34 245.54L220.34 304.54L169.24 334.04L118.14 304.54L118.14 245.54zM169.24 393.04L220.34 422.54L220.34 481.54L169.24 511.04L118.14 481.54L118.14 422.54zM220.34 127.54L271.43 157.04L271.43 216.04L220.34 245.54L169.24 216.04L169.24 157.04zM220.34 481.54L271.43 511.04L271.43 570.04L220.34 599.54L169.24 570.04L169.24 511.04zM373.63 39.04L424.73 68.54L424.73 127.54L373.63 157.04L322.53 127.54L322.53 68.54zM373.63 393.04L424.73 422.54L424.73 481.54L373.63 511.04L322.53 481.54L322.53 422.54zM475.82 393.04L526.92 422.54L526.92 481.54L475.82 511.04L424.73 481.54L424.73 422.54zM424.73 481.54L475.82 511.04L475.82 570.04L424.73 599.54L373.63 570.04L373.63 511.04zM782.4 39.04L833.5 68.54L833.5 127.54L782.4 157.04L731.31 127.54L731.31 68.54zM731.31 127.54L782.4 157.04L782.4 216.04L731.31 245.54L680.21 216.04L680.21 157.04zM782.4 393.04L833.5 422.54L833.5 481.54L782.4 511.04L731.31 481.54L731.31 422.54zM884.6 216.04L935.7 245.54L935.7 304.54L884.6 334.04L833.5 304.54L833.5 245.54zM1037.89 481.54L1088.99 511.04L1088.99 570.04L1037.89 599.54L986.79 570.04L986.79 511.04zM1140.08 -49.46L1191.18 -19.96L1191.18 39.04L1140.08 68.54L1088.99 39.04L1088.99 -19.96zM1191.18 216.04L1242.28 245.54L1242.28 304.54L1191.18 334.04L1140.08 304.54L1140.08 245.54zM1140.08 481.54L1191.18 511.04L1191.18 570.04L1140.08 599.54L1088.99 570.04L1088.99 511.04zM1242.28 -49.46L1293.37 -19.96L1293.37 39.04L1242.28 68.54L1191.18 39.04L1191.18 -19.96zM1242.28 127.54L1293.37 157.04L1293.37 216.04L1242.28 245.54L1191.18 216.04L1191.18 157.04zM1293.37 216.04L1344.47 245.54L1344.47 304.54L1293.37 334.04L1242.28 304.54L1242.28 245.54zM1395.57 39.04L1446.66 68.54L1446.66 127.54L1395.57 157.04L1344.47 127.54L1344.47 68.54zM1395.57 393.04L1446.66 422.54L1446.66 481.54L1395.57 511.04L1344.47 481.54L1344.47 422.54zM1344.47 481.54L1395.57 511.04L1395.57 570.04L1344.47 599.54L1293.37 570.04L1293.37 511.04zM1497.76 393.04L1548.86 422.54L1548.86 481.54L1497.76 511.04L1446.66 481.54L1446.66 422.54z" stroke="rgba(229, 229, 229, 1)" stroke-width="2"></path>
        <path d="M112.24 -49.46 a5.9 5.9 0 1 0 11.8 0 a5.9 5.9 0 1 0 -11.8 0zM163.34 -19.96 a5.9 5.9 0 1 0 11.8 0 a5.9 5.9 0 1 0 -11.8 0zM163.34 39.04 a5.9 5.9 0 1 0 11.8 0 a5.9 5.9 0 1 0 -11.8 0zM112.24 68.54 a5.9 5.9 0 1 0 11.8 0 a5.9 5.9 0 1 0 -11.8 0zM61.15 39.04 a5.9 5.9 0 1 0 11.8 0 a5.9 5.9 0 1 0 -11.8 0zM61.15 -19.96 a5.9 5.9 0 1 0 11.8 0 a5.9 5.9 0 1 0 -11.8 0zM214.44 68.54 a5.9 5.9 0 1 0 11.8 0 a5.9 5.9 0 1 0 -11.8 0zM214.44 127.54 a5.9 5.9 0 1 0 11.8 0 a5.9 5.9 0 1 0 -11.8 0zM163.34 157.04 a5.9 5.9 0 1 0 11.8 0 a5.9 5.9 0 1 0 -11.8 0zM112.24 127.54 a5.9 5.9 0 1 0 11.8 0 a5.9 5.9 0 1 0 -11.8 0zM163.34 216.04 a5.9 5.9 0 1 0 11.8 0 a5.9 5.9 0 1 0 -11.8 0zM214.44 245.54 a5.9 5.9 0 1 0 11.8 0 a5.9 5.9 0 1 0 -11.8 0zM214.44 304.54 a5.9 5.9 0 1 0 11.8 0 a5.9 5.9 0 1 0 -11.8 0zM163.34 334.04 a5.9 5.9 0 1 0 11.8 0 a5.9 5.9 0 1 0 -11.8 0zM112.24 304.54 a5.9 5.9 0 1 0 11.8 0 a5.9 5.9 0 1 0 -11.8 0zM112.24 245.54 a5.9 5.9 0 1 0 11.8 0 a5.9 5.9 0 1 0 -11.8 0zM163.34 393.04 a5.9 5.9 0 1 0 11.8 0 a5.9 5.9 0 1 0 -11.8 0zM214.44 422.54 a5.9 5.9 0 1 0 11.8 0 a5.9 5.9 0 1 0 -11.8 0zM214.44 481.54 a5.9 5.9 0 1 0 11.8 0 a5.9 5.9 0 1 0 -11.8 0zM163.34 511.04 a5.9 5.9 0 1 0 11.8 0 a5.9 5.9 0 1 0 -11.8 0zM112.24 481.54 a5.9 5.9 0 1 0 11.8 0 a5.9 5.9 0 1 0 -11.8 0zM112.24 422.54 a5.9 5.9 0 1 0 11.8 0 a5.9 5.9 0 1 0 -11.8 0zM265.53 157.04 a5.9 5.9 0 1 0 11.8 0 a5.9 5.9 0 1 0 -11.8 0zM265.53 216.04 a5.9 5.9 0 1 0 11.8 0 a5.9 5.9 0 1 0 -11.8 0zM265.53 511.04 a5.9 5.9 0 1 0 11.8 0 a5.9 5.9 0 1 0 -11.8 0zM265.53 570.04 a5.9 5.9 0 1 0 11.8 0 a5.9 5.9 0 1 0 -11.8 0zM214.44 599.54 a5.9 5.9 0 1 0 11.8 0 a5.9 5.9 0 1 0 -11.8 0zM163.34 570.04 a5.9 5.9 0 1 0 11.8 0 a5.9 5.9 0 1 0 -11.8 0zM367.73 39.04 a5.9 5.9 0 1 0 11.8 0 a5.9 5.9 0 1 0 -11.8 0zM418.83 68.54 a5.9 5.9 0 1 0 11.8 0 a5.9 5.9 0 1 0 -11.8 0zM418.83 127.54 a5.9 5.9 0 1 0 11.8 0 a5.9 5.9 0 1 0 -11.8 0zM367.73 157.04 a5.9 5.9 0 1 0 11.8 0 a5.9 5.9 0 1 0 -11.8 0zM316.63 127.54 a5.9 5.9 0 1 0 11.8 0 a5.9 5.9 0 1 0 -11.8 0zM316.63 68.54 a5.9 5.9 0 1 0 11.8 0 a5.9 5.9 0 1 0 -11.8 0zM367.73 393.04 a5.9 5.9 0 1 0 11.8 0 a5.9 5.9 0 1 0 -11.8 0zM418.83 422.54 a5.9 5.9 0 1 0 11.8 0 a5.9 5.9 0 1 0 -11.8 0zM418.83 481.54 a5.9 5.9 0 1 0 11.8 0 a5.9 5.9 0 1 0 -11.8 0zM367.73 511.04 a5.9 5.9 0 1 0 11.8 0 a5.9 5.9 0 1 0 -11.8 0zM316.63 481.54 a5.9 5.9 0 1 0 11.8 0 a5.9 5.9 0 1 0 -11.8 0zM316.63 422.54 a5.9 5.9 0 1 0 11.8 0 a5.9 5.9 0 1 0 -11.8 0zM469.92 393.04 a5.9 5.9 0 1 0 11.8 0 a5.9 5.9 0 1 0 -11.8 0zM521.02 422.54 a5.9 5.9 0 1 0 11.8 0 a5.9 5.9 0 1 0 -11.8 0zM521.02 481.54 a5.9 5.9 0 1 0 11.8 0 a5.9 5.9 0 1 0 -11.8 0zM469.92 511.04 a5.9 5.9 0 1 0 11.8 0 a5.9 5.9 0 1 0 -11.8 0zM469.92 570.04 a5.9 5.9 0 1 0 11.8 0 a5.9 5.9 0 1 0 -11.8 0zM418.83 599.54 a5.9 5.9 0 1 0 11.8 0 a5.9 5.9 0 1 0 -11.8 0zM367.73 570.04 a5.9 5.9 0 1 0 11.8 0 a5.9 5.9 0 1 0 -11.8 0zM776.5 39.04 a5.9 5.9 0 1 0 11.8 0 a5.9 5.9 0 1 0 -11.8 0zM827.6 68.54 a5.9 5.9 0 1 0 11.8 0 a5.9 5.9 0 1 0 -11.8 0zM827.6 127.54 a5.9 5.9 0 1 0 11.8 0 a5.9 5.9 0 1 0 -11.8 0zM776.5 157.04 a5.9 5.9 0 1 0 11.8 0 a5.9 5.9 0 1 0 -11.8 0zM725.41 127.54 a5.9 5.9 0 1 0 11.8 0 a5.9 5.9 0 1 0 -11.8 0zM725.41 68.54 a5.9 5.9 0 1 0 11.8 0 a5.9 5.9 0 1 0 -11.8 0zM776.5 216.04 a5.9 5.9 0 1 0 11.8 0 a5.9 5.9 0 1 0 -11.8 0zM725.41 245.54 a5.9 5.9 0 1 0 11.8 0 a5.9 5.9 0 1 0 -11.8 0zM674.31 216.04 a5.9 5.9 0 1 0 11.8 0 a5.9 5.9 0 1 0 -11.8 0zM674.31 157.04 a5.9 5.9 0 1 0 11.8 0 a5.9 5.9 0 1 0 -11.8 0zM776.5 393.04 a5.9 5.9 0 1 0 11.8 0 a5.9 5.9 0 1 0 -11.8 0zM827.6 422.54 a5.9 5.9 0 1 0 11.8 0 a5.9 5.9 0 1 0 -11.8 0zM827.6 481.54 a5.9 5.9 0 1 0 11.8 0 a5.9 5.9 0 1 0 -11.8 0zM776.5 511.04 a5.9 5.9 0 1 0 11.8 0 a5.9 5.9 0 1 0 -11.8 0zM725.41 481.54 a5.9 5.9 0 1 0 11.8 0 a5.9 5.9 0 1 0 -11.8 0zM725.41 422.54 a5.9 5.9 0 1 0 11.8 0 a5.9 5.9 0 1 0 -11.8 0zM878.7 216.04 a5.9 5.9 0 1 0 11.8 0 a5.9 5.9 0 1 0 -11.8 0zM929.8 245.54 a5.9 5.9 0 1 0 11.8 0 a5.9 5.9 0 1 0 -11.8 0zM929.8 304.54 a5.9 5.9 0 1 0 11.8 0 a5.9 5.9 0 1 0 -11.8 0zM878.7 334.04 a5.9 5.9 0 1 0 11.8 0 a5.9 5.9 0 1 0 -11.8 0zM827.6 304.54 a5.9 5.9 0 1 0 11.8 0 a5.9 5.9 0 1 0 -11.8 0zM827.6 245.54 a5.9 5.9 0 1 0 11.8 0 a5.9 5.9 0 1 0 -11.8 0zM1031.99 481.54 a5.9 5.9 0 1 0 11.8 0 a5.9 5.9 0 1 0 -11.8 0zM1083.09 511.04 a5.9 5.9 0 1 0 11.8 0 a5.9 5.9 0 1 0 -11.8 0zM1083.09 570.04 a5.9 5.9 0 1 0 11.8 0 a5.9 5.9 0 1 0 -11.8 0zM1031.99 599.54 a5.9 5.9 0 1 0 11.8 0 a5.9 5.9 0 1 0 -11.8 0zM980.89 570.04 a5.9 5.9 0 1 0 11.8 0 a5.9 5.9 0 1 0 -11.8 0zM980.89 511.04 a5.9 5.9 0 1 0 11.8 0 a5.9 5.9 0 1 0 -11.8 0zM1134.18 -49.46 a5.9 5.9 0 1 0 11.8 0 a5.9 5.9 0 1 0 -11.8 0zM1185.28 -19.96 a5.9 5.9 0 1 0 11.8 0 a5.9 5.9 0 1 0 -11.8 0zM1185.28 39.04 a5.9 5.9 0 1 0 11.8 0 a5.9 5.9 0 1 0 -11.8 0zM1134.18 68.54 a5.9 5.9 0 1 0 11.8 0 a5.9 5.9 0 1 0 -11.8 0zM1083.09 39.04 a5.9 5.9 0 1 0 11.8 0 a5.9 5.9 0 1 0 -11.8 0zM1083.09 -19.96 a5.9 5.9 0 1 0 11.8 0 a5.9 5.9 0 1 0 -11.8 0zM1185.28 216.04 a5.9 5.9 0 1 0 11.8 0 a5.9 5.9 0 1 0 -11.8 0zM1236.38 245.54 a5.9 5.9 0 1 0 11.8 0 a5.9 5.9 0 1 0 -11.8 0zM1236.38 304.54 a5.9 5.9 0 1 0 11.8 0 a5.9 5.9 0 1 0 -11.8 0zM1185.28 334.04 a5.9 5.9 0 1 0 11.8 0 a5.9 5.9 0 1 0 -11.8 0zM1134.18 304.54 a5.9 5.9 0 1 0 11.8 0 a5.9 5.9 0 1 0 -11.8 0zM1134.18 245.54 a5.9 5.9 0 1 0 11.8 0 a5.9 5.9 0 1 0 -11.8 0zM1134.18 481.54 a5.9 5.9 0 1 0 11.8 0 a5.9 5.9 0 1 0 -11.8 0zM1185.28 511.04 a5.9 5.9 0 1 0 11.8 0 a5.9 5.9 0 1 0 -11.8 0zM1185.28 570.04 a5.9 5.9 0 1 0 11.8 0 a5.9 5.9 0 1 0 -11.8 0zM1134.18 599.54 a5.9 5.9 0 1 0 11.8 0 a5.9 5.9 0 1 0 -11.8 0zM1236.38 -49.46 a5.9 5.9 0 1 0 11.8 0 a5.9 5.9 0 1 0 -11.8 0zM1287.47 -19.96 a5.9 5.9 0 1 0 11.8 0 a5.9 5.9 0 1 0 -11.8 0zM1287.47 39.04 a5.9 5.9 0 1 0 11.8 0 a5.9 5.9 0 1 0 -11.8 0zM1236.38 68.54 a5.9 5.9 0 1 0 11.8 0 a5.9 5.9 0 1 0 -11.8 0zM1236.38 127.54 a5.9 5.9 0 1 0 11.8 0 a5.9 5.9 0 1 0 -11.8 0zM1287.47 157.04 a5.9 5.9 0 1 0 11.8 0 a5.9 5.9 0 1 0 -11.8 0zM1287.47 216.04 a5.9 5.9 0 1 0 11.8 0 a5.9 5.9 0 1 0 -11.8 0zM1185.28 157.04 a5.9 5.9 0 1 0 11.8 0 a5.9 5.9 0 1 0 -11.8 0zM1338.57 245.54 a5.9 5.9 0 1 0 11.8 0 a5.9 5.9 0 1 0 -11.8 0zM1338.57 304.54 a5.9 5.9 0 1 0 11.8 0 a5.9 5.9 0 1 0 -11.8 0zM1287.47 334.04 a5.9 5.9 0 1 0 11.8 0 a5.9 5.9 0 1 0 -11.8 0zM1389.67 39.04 a5.9 5.9 0 1 0 11.8 0 a5.9 5.9 0 1 0 -11.8 0zM1440.76 68.54 a5.9 5.9 0 1 0 11.8 0 a5.9 5.9 0 1 0 -11.8 0zM1440.76 127.54 a5.9 5.9 0 1 0 11.8 0 a5.9 5.9 0 1 0 -11.8 0zM1389.67 157.04 a5.9 5.9 0 1 0 11.8 0 a5.9 5.9 0 1 0 -11.8 0zM1338.57 127.54 a5.9 5.9 0 1 0 11.8 0 a5.9 5.9 0 1 0 -11.8 0zM1338.57 68.54 a5.9 5.9 0 1 0 11.8 0 a5.9 5.9 0 1 0 -11.8 0zM1389.67 393.04 a5.9 5.9 0 1 0 11.8 0 a5.9 5.9 0 1 0 -11.8 0zM1440.76 422.54 a5.9 5.9 0 1 0 11.8 0 a5.9 5.9 0 1 0 -11.8 0zM1440.76 481.54 a5.9 5.9 0 1 0 11.8 0 a5.9 5.9 0 1 0 -11.8 0zM1389.67 511.04 a5.9 5.9 0 1 0 11.8 0 a5.9 5.9 0 1 0 -11.8 0zM1338.57 481.54 a5.9 5.9 0 1 0 11.8 0 a5.9 5.9 0 1 0 -11.8 0zM1338.57 422.54 a5.9 5.9 0 1 0 11.8 0 a5.9 5.9 0 1 0 -11.8 0zM1389.67 570.04 a5.9 5.9 0 1 0 11.8 0 a5.9 5.9 0 1 0 -11.8 0zM1338.57 599.54 a5.9 5.9 0 1 0 11.8 0 a5.9 5.9 0 1 0 -11.8 0zM1287.47 570.04 a5.9 5.9 0 1 0 11.8 0 a5.9 5.9 0 1 0 -11.8 0zM1287.47 511.04 a5.9 5.9 0 1 0 11.8 0 a5.9 5.9 0 1 0 -11.8 0zM1491.86 393.04 a5.9 5.9 0 1 0 11.8 0 a5.9 5.9 0 1 0 -11.8 0zM1542.96 422.54 a5.9 5.9 0 1 0 11.8 0 a5.9 5.9 0 1 0 -11.8 0zM1542.96 481.54 a5.9 5.9 0 1 0 11.8 0 a5.9 5.9 0 1 0 -11.8 0zM1491.86 511.04 a5.9 5.9 0 1 0 11.8 0 a5.9 5.9 0 1 0 -11.8 0z" fill="rgba(229, 229, 229, 1)"></path>
        <path d="M41.51 -93.4L136.78 -38.4L136.78 71.6L41.51 126.6L-53.76 71.6L-53.76 -38.4zM136.78 71.6L232.04 126.6L232.04 236.6L136.78 291.6L41.51 236.6L41.51 126.6zM41.51 236.6L136.78 291.6L136.78 401.6L41.51 456.6L-53.76 401.6L-53.76 291.6zM327.31 71.6L422.57 126.6L422.57 236.6L327.31 291.6L232.04 236.6L232.04 126.6zM232.04 236.6L327.31 291.6L327.31 401.6L232.04 456.6L136.78 401.6L136.78 291.6zM422.57 -93.4L517.84 -38.4L517.84 71.6L422.57 126.6L327.31 71.6L327.31 -38.4zM517.84 71.6L613.1 126.6L613.1 236.6L517.84 291.6L422.57 236.6L422.57 126.6zM517.84 401.6L613.1 456.6L613.1 566.6L517.84 621.6L422.57 566.6L422.57 456.6zM613.1 -93.4L708.37 -38.4L708.37 71.6L613.1 126.6L517.84 71.6L517.84 -38.4zM613.1 236.6L708.37 291.6L708.37 401.6L613.1 456.6L517.84 401.6L517.84 291.6zM708.37 401.6L803.63 456.6L803.63 566.6L708.37 621.6L613.1 566.6L613.1 456.6zM898.9 401.6L994.16 456.6L994.16 566.6L898.9 621.6L803.63 566.6L803.63 456.6zM994.16 -93.4L1089.43 -38.4L1089.43 71.6L994.16 126.6L898.9 71.6L898.9 -38.4zM1089.43 71.6L1184.7 126.6L1184.7 236.6L1089.43 291.6L994.16 236.6L994.16 126.6zM1184.7 236.6L1279.96 291.6L1279.96 401.6L1184.7 456.6L1089.43 401.6L1089.43 291.6zM1279.96 401.6L1375.23 456.6L1375.23 566.6L1279.96 621.6L1184.7 566.6L1184.7 456.6z" stroke="rgba(230, 230, 230, 1)" stroke-width="2"></path>
    </g>
    <defs>
        <mask id="SvgjsMask1384">
            <rect width="1440" height="560" fill="#ffffff"></rect>
        </mask>
    </defs>
</svg>